<?xml version="1.0" encoding="UTF-8"?>
                <svg xmlns="http://www.w3.org/2000/svg"
                version="1.1" baseProfile="full"
                viewBox="-10 -891 120.00001 972.00006">
<g stroke="black" stroke-width="0.97200006" fill="none">
<path d="M0 -0 L0 -10" />
<path d="M0 -20 L0 -30" />
<path d="M0 -60 L0 -70" />
<path d="M0 -80 L0 -90" />
<path d="M0 -180 L0 -190" />
<path d="M0 -200 L0 -210" />
<path d="M0 -240 L0 -250" />
<path d="M0 -260 L0 -270" />
<path d="M0 -540 L0 -550" />
<path d="M0 -560 L0 -570" />
<path d="M0 -600 L0 -610" />
<path d="M0 -620 L0 -630" />
<path d="M0 -720 L0 -730" />
<path d="M0 -740 L0 -750" />
<path d="M0 -780 L0 -790" />
<path d="M0 -800 L0 -810" />
</g>
</svg>
